<svg width="16" height="16" viewBox="0 0 16 16" fill="none" xmlns="http://www.w3.org/2000/svg">
<rect width="16" height="16" rx="3" fill="#0F0F0F"/>
<path d="M6.5 13C6.5 13.5523 6.94772 14 7.5 14H8.5C9.05228 14 9.5 13.5523 9.5 13V3C9.5 2.44772 9.05228 2 8.5 2H7.5C6.94772 2 6.5 2.44772 6.5 3V13ZM2 13C2 13.5523 2.44772 14 3 14H4C4.55228 14 5 13.5523 5 13V9C5 8.44772 4.55228 8 4 8H3C2.44772 8 2 8.44772 2 9V13ZM12 5.75C11.4477 5.75 11 6.19772 11 6.75V13C11 13.5523 11.4477 14 12 14H13C13.5523 14 14 13.5523 14 13V6.75C14 6.19772 13.5523 5.75 13 5.75H12Z" fill="url(#paint0_linear_129_4)"/>
<defs>
<linearGradient id="paint0_linear_129_4" x1="8" y1="2" x2="8" y2="14" gradientUnits="userSpaceOnUse">
<stop stop-color="#7000FF"/>
<stop offset="1" stop-color="#8F36FF"/>
</linearGradient>
</defs>
</svg>
