<svg width="28" height="28" viewBox="0 0 28 28" fill="none" xmlns="http://www.w3.org/2000/svg">
<circle cx="14" cy="14" r="14" fill="#151515"/>
<circle cx="14" cy="14" r="7.5" stroke="url(#paint0_linear_117_26)"/>
<path d="M16.266 16.1071C16.2058 16.0506 16.1243 16.0189 16.0394 16.0189C15.9545 16.0189 15.873 16.0506 15.8128 16.1071L14.3214 17.4914V10.3393C14.3214 10.2588 14.2875 10.1816 14.2272 10.1246C14.1669 10.0677 14.0852 10.0357 13.9999 10.0357C13.9147 10.0357 13.8329 10.0677 13.7727 10.1246C13.7124 10.1816 13.6785 10.2588 13.6785 10.3393V17.4823L12.2224 16.1071C12.1926 16.0787 12.157 16.0561 12.1178 16.0407C12.0787 16.0253 12.0367 16.0173 11.9942 16.0173C11.9518 16.0173 11.9098 16.0253 11.8706 16.0407C11.8314 16.0561 11.7959 16.0787 11.766 16.1071C11.7061 16.164 11.6725 16.241 11.6725 16.3212C11.6725 16.4014 11.7061 16.4783 11.766 16.5352L13.8135 18.4689C13.8677 18.5199 13.9411 18.5485 14.0176 18.5485C14.0941 18.5485 14.1675 18.5199 14.2217 18.4689L16.266 16.5352C16.3259 16.4783 16.3595 16.4014 16.3595 16.3212C16.3595 16.241 16.3259 16.164 16.266 16.1071Z" fill="url(#paint1_linear_117_26)"/>
<defs>
<linearGradient id="paint0_linear_117_26" x1="14" y1="6" x2="14" y2="22" gradientUnits="userSpaceOnUse">
<stop stop-color="#7000FF"/>
<stop offset="1" stop-color="#8F36FF"/>
</linearGradient>
<linearGradient id="paint1_linear_117_26" x1="14.016" y1="10.0357" x2="14.016" y2="18.5485" gradientUnits="userSpaceOnUse">
<stop stop-color="#7000FF"/>
<stop offset="1" stop-color="#8F36FF"/>
</linearGradient>
</defs>
</svg>
