<svg width="28" height="25" viewBox="0 0 28 25" fill="none" xmlns="http://www.w3.org/2000/svg">
<path fill-rule="evenodd" clip-rule="evenodd" d="M15.9371 0.00484648C8.91465 -0.18956 3.16151 5.48989 3.16151 12.5024H0.691941C0.0710993 12.5024 -0.232423 13.2523 0.209064 13.6828L4.05828 17.5709C4.33421 17.8486 4.7619 17.8486 5.03783 17.5709L8.88705 13.6828C9.31474 13.2523 9.01122 12.5024 8.39038 12.5024H5.92081C5.92081 7.08681 10.3081 2.71265 15.7163 2.78209C20.8486 2.85152 25.1669 7.1979 25.2359 12.3636C25.3049 17.7931 20.959 22.2228 15.5783 22.2228C13.3571 22.2228 11.3014 21.459 9.67345 20.1676C9.12159 19.7371 8.34899 19.7788 7.85232 20.2787C7.27286 20.8619 7.31425 21.8478 7.96269 22.3477C10.0598 24.0141 12.6949 25 15.5783 25C22.5456 25 28.1883 19.2095 27.9952 12.1414C27.8158 5.62876 22.4076 0.185367 15.9371 0.00484648ZM15.2334 6.94794C14.6678 6.94794 14.1987 7.42008 14.1987 7.98941V13.0995C14.1987 13.5855 14.4608 14.0438 14.8747 14.2937L19.1792 16.8627C19.6759 17.1543 20.3105 16.9877 20.6003 16.5016C20.89 16.0017 20.7244 15.363 20.2416 15.0714L16.2682 12.6968V7.97552C16.2682 7.42008 15.7991 6.94794 15.2334 6.94794Z" fill="url(#paint0_linear_2_98)"/>
<defs>
<linearGradient id="paint0_linear_2_98" x1="14" y1="0" x2="14" y2="25" gradientUnits="userSpaceOnUse">
<stop stop-color="#7000FF"/>
<stop offset="1" stop-color="#8F36FF"/>
</linearGradient>
</defs>
</svg>
