<svg width="25" height="28" viewBox="0 0 25 28" fill="none" xmlns="http://www.w3.org/2000/svg">
<path d="M13.0983 0.446723C12.7434 0.181763 12.2566 0.181763 11.9017 0.446723L0.401711 9.03339C0.148899 9.22216 0 9.51916 0 9.83467V27C0 27.5523 0.447715 28 1 28H8.375C8.92728 28 9.375 27.5523 9.375 27V18.1111C9.375 17.5588 9.82272 17.1111 10.375 17.1111H14.625C15.1773 17.1111 15.625 17.5588 15.625 18.1111V27C15.625 27.5523 16.0727 28 16.625 28H24C24.5523 28 25 27.5523 25 27V9.83467C25 9.51916 24.8511 9.22216 24.5983 9.03339L13.0983 0.446723Z" fill="url(#paint0_linear_116_3)"/>
<defs>
<linearGradient id="paint0_linear_116_3" x1="12.5" y1="0" x2="12.5" y2="28" gradientUnits="userSpaceOnUse">
<stop stop-color="#7000FF"/>
<stop offset="1" stop-color="#8F36FF"/>
</linearGradient>
</defs>
</svg>
