<svg width="21" height="19" viewBox="0 0 21 19" fill="none" xmlns="http://www.w3.org/2000/svg">
<path d="M14.9659 0.499977C16.2527 0.499977 17.4941 0.932936 18.4607 1.72077C20.0941 3.04959 20.948 4.79836 21 6.91849C21.0233 7.90371 20.6287 8.76617 20.2826 9.40694C19.4749 10.9067 18.3705 12.1075 17.3972 13.0845C15.6542 14.835 13.6606 16.4805 11.1226 18.2657L11.1203 18.2675C11.016 18.3436 10.8081 18.4952 10.5013 18.4952C10.3004 18.4952 10.108 18.431 9.92831 18.3039C7.11559 16.323 4.95595 14.5096 3.13144 12.5991C2.13529 11.5561 1.3611 10.5444 0.764376 9.50628C-0.351995 7.56576 -0.243221 5.49163 1.08586 3.34113C2.02784 1.81796 3.37673 0.889122 5.09246 0.582405C7.16006 0.210179 9.25056 1.0518 10.5017 2.69212C10.6633 2.47867 10.8355 2.28215 11.0191 2.09907C12.0408 1.08218 13.4796 0.499977 14.9659 0.499977Z" fill="#C2C2C2"/>
</svg>
