<svg width="21" height="18" viewBox="0 0 21 18" fill="none" xmlns="http://www.w3.org/2000/svg">
<path d="M18.4598 1.22554C17.4931 0.4377 16.2517 0.00473737 14.9649 0.00473737C13.4786 0.00473737 12.0399 0.586937 11.0182 1.60383C10.8345 1.78691 10.6623 1.98344 10.5007 2.19688C9.24959 0.556569 7.15909 -0.285061 5.09149 0.0871653C3.37575 0.393883 2.02686 1.32271 1.08488 2.84589C-0.244197 4.99638 -0.352972 7.07052 0.7634 9.01104C1.36012 10.0492 2.13431 11.0609 3.13046 12.1038C4.95497 14.0144 7.11461 15.8278 9.92734 17.8087C10.107 17.9358 10.2995 18 10.5003 18C10.8094 18 11.0182 17.846 11.1217 17.7705C13.6596 15.9853 15.6532 14.3398 17.3962 12.5893C18.3695 11.6123 19.474 10.4114 20.2816 8.9117C20.6278 8.27093 21.0224 7.40848 20.999 6.42325C20.947 4.30312 20.0931 2.55436 18.4598 1.22554ZM18.9596 8.22017C18.2405 9.55377 17.2258 10.6544 16.3274 11.5559C14.7156 13.1749 12.8726 14.7072 10.4976 16.3966C7.91302 14.5545 5.91236 12.863 4.22129 11.0913C3.30837 10.1355 2.60332 9.21711 2.06561 8.28221C1.21435 6.80285 1.30903 5.31828 2.36419 3.61247C3.07409 2.46368 4.08169 1.76522 5.35968 1.53659C5.60453 1.49234 5.85247 1.47065 6.09688 1.47065C7.6118 1.47065 8.95365 2.29493 9.71155 3.72613L9.84014 3.96517C9.97225 4.20942 10.2444 4.34824 10.513 4.35475C10.7945 4.34954 11.0486 4.1912 11.1723 3.94218C11.4383 3.4077 11.7285 2.99296 12.0826 2.63982C12.8251 1.90188 13.8754 1.47802 14.9649 1.47802C15.9042 1.47802 16.8066 1.79168 17.5063 2.36174C18.8081 3.42071 19.4608 4.76125 19.5026 6.45665C19.5171 7.09655 19.2366 7.70652 18.9596 8.22017Z" fill="#C2C2C2"/>
</svg>
