<svg width="28" height="28" viewBox="0 0 28 28" fill="none" xmlns="http://www.w3.org/2000/svg">
<circle cx="14" cy="14" r="14" fill="#151515"/>
<path d="M19.2522 22.0385H9.15529C8.31846 22.0385 7.51591 21.706 6.92418 21.1143C6.33245 20.5226 6.00002 19.72 6.00002 18.8832C5.99937 18.8079 6.01219 18.7331 6.03789 18.6623C6.64433 17.0626 7.72175 15.6844 9.12786 14.7098C10.534 13.7352 12.2026 13.2101 13.9134 13.2037H14.494C16.2048 13.2101 17.8735 13.7352 19.2796 14.7098C20.6857 15.6844 21.7631 17.0626 22.3696 18.6623C22.3953 18.7331 22.4081 18.8079 22.4074 18.8832C22.4074 19.72 22.075 20.5226 21.4833 21.1143C20.8915 21.706 20.089 22.0385 19.2522 22.0385ZM7.26213 18.9905C7.28956 19.4737 7.50106 19.9282 7.85317 20.2603C8.20528 20.5925 8.67124 20.7771 9.15529 20.7764H19.2522C19.7362 20.7771 20.2022 20.5925 20.5543 20.2603C20.9064 19.9282 21.1179 19.4737 21.1453 18.9905C20.6142 17.659 19.6972 16.5168 18.5119 15.7105C17.3267 14.9042 15.9275 14.4708 14.494 14.4658H13.9134C12.48 14.4708 11.0807 14.9042 9.89552 15.7105C8.7103 16.5168 7.79322 17.659 7.26213 18.9905Z" fill="url(#paint0_linear_18_214)"/>
<path d="M14.2037 12.5726C13.4549 12.5726 12.7228 12.3506 12.1002 11.9345C11.4775 11.5185 10.9922 10.9271 10.7056 10.2353C10.4191 9.54343 10.3441 8.78213 10.4902 8.04765C10.6363 7.31318 10.9969 6.63852 11.5264 6.10899C12.0559 5.57946 12.7306 5.21885 13.4651 5.07275C14.1995 4.92666 14.9608 5.00164 15.6527 5.28822C16.3446 5.5748 16.9359 6.0601 17.352 6.68276C17.768 7.30541 17.9901 8.03746 17.9901 8.78633C17.9901 9.79052 17.5912 10.7536 16.8811 11.4637C16.171 12.1737 15.2079 12.5726 14.2037 12.5726ZM14.2037 6.26211C13.7045 6.26211 13.2165 6.41015 12.8014 6.68752C12.3863 6.96488 12.0627 7.35911 11.8717 7.82035C11.6806 8.28159 11.6306 8.78913 11.728 9.27878C11.8254 9.76843 12.0658 10.2182 12.4189 10.5712C12.7719 10.9242 13.2216 11.1646 13.7113 11.262C14.2009 11.3594 14.7085 11.3094 15.1697 11.1184C15.631 10.9273 16.0252 10.6038 16.3026 10.1887C16.5799 9.7736 16.728 9.28557 16.728 8.78633C16.728 8.11686 16.462 7.47482 15.9886 7.00144C15.5153 6.52805 14.8732 6.26211 14.2037 6.26211Z" fill="url(#paint1_linear_18_214)"/>
<path d="M19.2522 22.0385H9.15529C8.31846 22.0385 7.51591 21.706 6.92418 21.1143C6.33245 20.5226 6.00002 19.72 6.00002 18.8832C5.99937 18.8079 6.01219 18.7331 6.03789 18.6623C6.64433 17.0626 7.72175 15.6844 9.12786 14.7098C10.534 13.7352 12.2026 13.2101 13.9134 13.2037H14.494C16.2048 13.2101 17.8735 13.7352 19.2796 14.7098C20.6857 15.6844 21.7631 17.0626 22.3696 18.6623C22.3953 18.7331 22.4081 18.8079 22.4074 18.8832C22.4074 19.72 22.075 20.5226 21.4833 21.1143C20.8915 21.706 20.089 22.0385 19.2522 22.0385ZM7.26213 18.9905C7.28956 19.4737 7.50106 19.9282 7.85317 20.2603C8.20528 20.5925 8.67124 20.7771 9.15529 20.7764H19.2522C19.7362 20.7771 20.2022 20.5925 20.5543 20.2603C20.9064 19.9282 21.1179 19.4737 21.1453 18.9905C20.6142 17.659 19.6972 16.5168 18.5119 15.7105C17.3267 14.9042 15.9275 14.4708 14.494 14.4658H13.9134C12.48 14.4708 11.0807 14.9042 9.89552 15.7105C8.7103 16.5168 7.79322 17.659 7.26213 18.9905Z" fill="url(#paint2_linear_18_214)"/>
<defs>
<linearGradient id="paint0_linear_18_214" x1="14.2037" y1="13.2037" x2="14.2037" y2="22.0385" gradientUnits="userSpaceOnUse">
<stop stop-color="#7000FF"/>
<stop offset="1" stop-color="#8F36FF"/>
</linearGradient>
<linearGradient id="paint1_linear_18_214" x1="14.2037" y1="5" x2="14.2037" y2="12.5726" gradientUnits="userSpaceOnUse">
<stop stop-color="#7000FF"/>
<stop offset="1" stop-color="#8F36FF"/>
</linearGradient>
<linearGradient id="paint2_linear_18_214" x1="14.2037" y1="13.2037" x2="14.2037" y2="22.0385" gradientUnits="userSpaceOnUse">
<stop stop-color="#7000FF"/>
<stop offset="1" stop-color="#8F36FF"/>
</linearGradient>
</defs>
</svg>
