<svg width="101" height="27" viewBox="0 0 101 27" fill="none" xmlns="http://www.w3.org/2000/svg">
<g filter="url(#filter0_d_117_25)">
<path d="M8.576 18C8.13867 17.072 7.70667 16.1067 7.28 15.104C6.85333 14.1013 6.448 13.1093 6.064 12.128C5.68 11.1467 5.32267 10.208 4.992 9.312C4.672 8.416 4.39467 7.616 4.16 6.912H6.912C7.12533 7.552 7.35467 8.24533 7.6 8.992C7.856 9.728 8.112 10.464 8.368 11.2C8.63467 11.936 8.89067 12.64 9.136 13.312C9.38133 13.984 9.61067 14.5653 9.824 15.056C10.0267 14.5653 10.2507 13.984 10.496 13.312C10.752 12.64 11.008 11.936 11.264 11.2C11.5307 10.464 11.7867 9.728 12.032 8.992C12.288 8.24533 12.5227 7.552 12.736 6.912H15.392C15.1467 7.616 14.864 8.416 14.544 9.312C14.224 10.208 13.872 11.1467 13.488 12.128C13.104 13.1093 12.6987 14.1013 12.272 15.104C11.8453 16.1067 11.4133 17.072 10.976 18H8.576ZM18.7309 18H16.3469V9.584H18.7309V18ZM18.9549 7.152C18.9549 7.58933 18.8109 7.936 18.5229 8.192C18.2455 8.43733 17.9149 8.56 17.5309 8.56C17.1469 8.56 16.8109 8.43733 16.5229 8.192C16.2455 7.936 16.1069 7.58933 16.1069 7.152C16.1069 6.71467 16.2455 6.37333 16.5229 6.128C16.8109 5.872 17.1469 5.744 17.5309 5.744C17.9149 5.744 18.2455 5.872 18.5229 6.128C18.8109 6.37333 18.9549 6.71467 18.9549 7.152ZM26.0439 13.728C26.0439 12.192 25.4785 11.424 24.3479 11.424C24.1025 11.424 23.8572 11.456 23.6119 11.52C23.3772 11.584 23.1852 11.664 23.0359 11.76V16.096C23.1532 16.1173 23.3025 16.1387 23.4839 16.16C23.6652 16.1707 23.8625 16.176 24.0759 16.176C24.7265 16.176 25.2172 15.952 25.5479 15.504C25.8785 15.056 26.0439 14.464 26.0439 13.728ZM28.4759 13.792C28.4759 14.464 28.3745 15.072 28.1719 15.616C27.9799 16.16 27.6972 16.624 27.3239 17.008C26.9505 17.392 26.4919 17.6907 25.9479 17.904C25.4039 18.1067 24.7852 18.208 24.0919 18.208C23.8039 18.208 23.4999 18.192 23.1799 18.16C22.8705 18.1387 22.5612 18.1067 22.2519 18.064C21.9532 18.0213 21.6652 17.9733 21.3879 17.92C21.1105 17.856 20.8652 17.792 20.6519 17.728V5.968L23.0359 5.584V9.776C23.3025 9.65867 23.5799 9.568 23.8679 9.504C24.1559 9.44 24.4652 9.408 24.7959 9.408C25.3932 9.408 25.9212 9.51467 26.3799 9.728C26.8385 9.93067 27.2225 10.224 27.5319 10.608C27.8412 10.992 28.0759 11.456 28.2359 12C28.3959 12.5333 28.4759 13.1307 28.4759 13.792ZM29.5881 13.856C29.5881 13.1093 29.7001 12.4587 29.9241 11.904C30.1588 11.3387 30.4628 10.8693 30.8361 10.496C31.2095 10.1227 31.6361 9.84 32.1161 9.648C32.6068 9.456 33.1081 9.36 33.6201 9.36C34.8148 9.36 35.7588 9.728 36.4521 10.464C37.1455 11.1893 37.4921 12.2613 37.4921 13.68C37.4921 13.8187 37.4868 13.9733 37.4761 14.144C37.4655 14.304 37.4548 14.448 37.4441 14.576H32.0361C32.0895 15.0667 32.3188 15.456 32.7241 15.744C33.1295 16.032 33.6735 16.176 34.3561 16.176C34.7935 16.176 35.2201 16.1387 35.6361 16.064C36.0628 15.9787 36.4095 15.8773 36.6761 15.76L36.9961 17.696C36.8681 17.76 36.6975 17.824 36.4841 17.888C36.2708 17.952 36.0308 18.0053 35.7641 18.048C35.5081 18.1013 35.2308 18.144 34.9321 18.176C34.6335 18.208 34.3348 18.224 34.0361 18.224C33.2788 18.224 32.6175 18.112 32.0521 17.888C31.4975 17.664 31.0335 17.36 30.6601 16.976C30.2975 16.5813 30.0255 16.1173 29.8441 15.584C29.6735 15.0507 29.5881 14.4747 29.5881 13.856ZM35.1881 12.944C35.1775 12.7413 35.1401 12.544 35.0761 12.352C35.0228 12.16 34.9321 11.9893 34.8041 11.84C34.6868 11.6907 34.5321 11.568 34.3401 11.472C34.1588 11.376 33.9295 11.328 33.6521 11.328C33.3855 11.328 33.1561 11.376 32.9641 11.472C32.7721 11.5573 32.6121 11.6747 32.4841 11.824C32.3561 11.9733 32.2548 12.1493 32.1801 12.352C32.1161 12.544 32.0681 12.7413 32.0361 12.944H35.1881ZM45.2359 14.272C45.2359 14.816 45.1719 15.328 45.0439 15.808C44.9265 16.288 44.7132 16.7093 44.4039 17.072C44.1052 17.424 43.6945 17.7067 43.1719 17.92C42.6599 18.1227 42.0092 18.224 41.2199 18.224C40.4945 18.224 39.8705 18.1387 39.3479 17.968C38.8252 17.7867 38.3932 17.5787 38.0519 17.344L38.8839 15.408C39.1932 15.5893 39.5239 15.7493 39.8759 15.888C40.2279 16.0267 40.6119 16.096 41.0279 16.096C41.6359 16.096 42.0732 15.9467 42.3399 15.648C42.6065 15.3493 42.7399 14.848 42.7399 14.144V6.912H45.2359V14.272ZM50.3766 16.336C50.6113 16.336 50.8353 16.3307 51.0486 16.32C51.262 16.3093 51.4326 16.2933 51.5606 16.272V14.464C51.4646 14.4427 51.3206 14.4213 51.1286 14.4C50.9366 14.3787 50.7606 14.368 50.6006 14.368C50.3766 14.368 50.1633 14.384 49.9606 14.416C49.7686 14.4373 49.598 14.4853 49.4486 14.56C49.2993 14.6347 49.182 14.736 49.0966 14.864C49.0113 14.992 48.9686 15.152 48.9686 15.344C48.9686 15.7173 49.0913 15.9787 49.3366 16.128C49.5926 16.2667 49.9393 16.336 50.3766 16.336ZM50.1846 9.36C50.8886 9.36 51.4753 9.44 51.9446 9.6C52.414 9.76 52.7873 9.98933 53.0646 10.288C53.3526 10.5867 53.5553 10.9493 53.6726 11.376C53.79 11.8027 53.8486 12.2773 53.8486 12.8V17.76C53.5073 17.8347 53.0326 17.92 52.4246 18.016C51.8166 18.1227 51.0806 18.176 50.2166 18.176C49.6726 18.176 49.1766 18.128 48.7286 18.032C48.2913 17.936 47.9126 17.7813 47.5926 17.568C47.2726 17.344 47.0273 17.056 46.8566 16.704C46.686 16.352 46.6006 15.92 46.6006 15.408C46.6006 14.9173 46.6966 14.5013 46.8886 14.16C47.0913 13.8187 47.358 13.5467 47.6886 13.344C48.0193 13.1413 48.398 12.9973 48.8246 12.912C49.2513 12.816 49.694 12.768 50.1526 12.768C50.462 12.768 50.734 12.784 50.9686 12.816C51.214 12.8373 51.4113 12.8693 51.5606 12.912V12.688C51.5606 12.2827 51.438 11.9573 51.1926 11.712C50.9473 11.4667 50.5206 11.344 49.9126 11.344C49.5073 11.344 49.1073 11.376 48.7126 11.44C48.318 11.4933 47.9766 11.5733 47.6886 11.68L47.3846 9.76C47.5233 9.71733 47.694 9.67467 47.8966 9.632C48.11 9.57867 48.3393 9.536 48.5846 9.504C48.83 9.46133 49.086 9.42933 49.3526 9.408C49.63 9.376 49.9073 9.36 50.1846 9.36ZM60.3084 13.536C60.3084 12.768 60.207 12.224 60.0044 11.904C59.8124 11.584 59.4764 11.424 58.9964 11.424C58.847 11.424 58.6924 11.4347 58.5324 11.456C58.3724 11.4667 58.2177 11.4827 58.0684 11.504V18H55.6844V9.872C55.887 9.81867 56.1217 9.76533 56.3884 9.712C56.6657 9.648 56.9537 9.59467 57.2524 9.552C57.5617 9.49867 57.8764 9.46133 58.1964 9.44C58.5164 9.408 58.831 9.392 59.1404 9.392C59.7484 9.392 60.239 9.472 60.6124 9.632C60.9964 9.78133 61.311 9.96267 61.5564 10.176C61.8977 9.93067 62.287 9.73867 62.7244 9.6C63.1724 9.46133 63.583 9.392 63.9564 9.392C64.6284 9.392 65.1777 9.488 65.6044 9.68C66.0417 9.86133 66.3884 10.1227 66.6444 10.464C66.9004 10.8053 67.0764 11.2107 67.1724 11.68C67.2684 12.1493 67.3164 12.672 67.3164 13.248V18H64.9324V13.536C64.9324 12.768 64.831 12.224 64.6284 11.904C64.4364 11.584 64.1004 11.424 63.6204 11.424C63.4924 11.424 63.311 11.456 63.0764 11.52C62.8524 11.584 62.6657 11.664 62.5164 11.76C62.591 12.0053 62.639 12.2667 62.6604 12.544C62.6817 12.8107 62.6924 13.0987 62.6924 13.408V18H60.3084V13.536Z" fill="white"/>
</g>
<path d="M80.125 18C80.125 18.5523 80.5727 19 81.125 19H83.875C84.4273 19 84.875 18.5523 84.875 18V1C84.875 0.447715 84.4273 0 83.875 0H81.125C80.5727 0 80.125 0.447715 80.125 1V18ZM73 18C73 18.5523 73.4477 19 74 19H76.75C77.3023 19 77.75 18.5523 77.75 18V10.5C77.75 9.94772 77.3023 9.5 76.75 9.5H74C73.4477 9.5 73 9.94772 73 10.5V18ZM88.25 5.9375C87.6977 5.9375 87.25 6.38522 87.25 6.9375V18C87.25 18.5523 87.6977 19 88.25 19H91C91.5523 19 92 18.5523 92 18V6.9375C92 6.38522 91.5523 5.9375 91 5.9375H88.25Z" fill="url(#paint0_linear_117_25)"/>
<defs>
<filter id="filter0_d_117_25" x="0.159973" y="5.58398" width="71.1564" height="20.64" filterUnits="userSpaceOnUse" color-interpolation-filters="sRGB">
<feFlood flood-opacity="0" result="BackgroundImageFix"/>
<feColorMatrix in="SourceAlpha" type="matrix" values="0 0 0 0 0 0 0 0 0 0 0 0 0 0 0 0 0 0 127 0" result="hardAlpha"/>
<feOffset dy="4"/>
<feGaussianBlur stdDeviation="2"/>
<feComposite in2="hardAlpha" operator="out"/>
<feColorMatrix type="matrix" values="0 0 0 0 0 0 0 0 0 0 0 0 0 0 0 0 0 0 0.25 0"/>
<feBlend mode="normal" in2="BackgroundImageFix" result="effect1_dropShadow_117_25"/>
<feBlend mode="normal" in="SourceGraphic" in2="effect1_dropShadow_117_25" result="shape"/>
</filter>
<linearGradient id="paint0_linear_117_25" x1="82.5" y1="0" x2="82.5" y2="19" gradientUnits="userSpaceOnUse">
<stop stop-color="#7000FF"/>
<stop offset="1" stop-color="#8F36FF"/>
</linearGradient>
</defs>
</svg>
