<svg width="28" height="28" viewBox="0 0 28 28" fill="none" xmlns="http://www.w3.org/2000/svg">
<g clip-path="url(#clip0_3_6)">
<path d="M26.8824 8.55016C25.4059 5.10854 22.8974 2.60551 19.427 1.1254C17.6924 0.385691 15.8906 0.00782776 13.9925 0.00782776C12.094 0.00782776 10.2905 0.382122 8.55766 1.1254C5.11641 2.60162 2.58108 5.103 1.10225 8.55016C0.361529 10.2771 0 12.0865 0 13.9846C0 15.8831 0.361529 17.7074 1.10225 19.4347C2.58108 22.882 5.11641 25.3984 8.55771 26.8748C10.2906 27.6182 12.094 27.9922 13.9925 27.9922C15.8907 27.9922 17.6925 27.6143 19.427 26.8748C22.8974 25.3948 25.4059 22.876 26.8824 19.4347C27.6257 17.7019 28 15.8831 28 13.9846C28 12.0865 27.6257 10.283 26.8824 8.55016ZM25.321 18.7763C24.6714 20.2891 23.8092 21.6125 22.703 22.7108C21.6047 23.8016 20.2843 24.6703 18.7686 25.3285C17.2532 25.9869 15.661 26.3082 13.9925 26.3082C11.7726 26.3082 9.72131 25.7572 7.83817 24.655C5.95535 23.5527 4.45173 22.0543 3.35273 20.1696C2.24723 18.2731 1.69917 16.2044 1.69917 13.9846C1.69917 11.7647 2.25048 9.71344 3.35273 7.83062C4.45497 5.94749 5.95535 4.44747 7.83817 3.34523C9.72131 2.24298 11.7726 1.69167 13.9925 1.69167C15.661 1.69167 17.2532 2.01303 18.7686 2.67144C20.2843 3.32985 21.5968 4.20609 22.703 5.30445C23.8013 6.39526 24.6713 7.71076 25.321 9.22353C25.9725 10.7418 26.3007 12.316 26.3007 13.9846C26.3007 15.6536 25.9726 17.2581 25.321 18.7763Z" fill="url(#paint0_linear_3_6)"/>
<path d="M18.1869 10.6629C18.1069 10.4232 17.9266 10.188 17.6817 10.1269L7.05732 6.36104C6.72777 6.24414 6.44493 6.29964 6.15427 6.59067C5.92469 6.82025 5.86196 7.18832 5.98577 7.49403L10.1344 17.7203C10.2223 17.9361 10.3761 18.0959 10.5936 18.1794L20.5446 22.0065C20.6057 22.0525 20.7128 22.0679 20.8506 22.0679C21.0801 22.0679 21.2741 21.9858 21.4172 21.8536C21.6876 21.6031 21.7467 21.3262 21.6315 20.9809L18.1869 10.6629ZM11.5734 16.7404L13.0127 15.2707C12.9666 15.2553 12.9206 15.2093 12.8595 15.1483C12.2318 14.5205 12.2318 13.4794 12.8595 12.852C13.4873 12.2243 14.5127 12.2243 15.1404 12.852C15.1865 12.8978 15.2322 12.9591 15.263 13.0202L16.7173 11.5659L19.473 19.7868L11.5734 16.7404Z" fill="url(#paint1_linear_3_6)"/>
</g>
<defs>
<linearGradient id="paint0_linear_3_6" x1="14" y1="0.00782776" x2="14" y2="27.9922" gradientUnits="userSpaceOnUse">
<stop stop-color="#7000FF"/>
<stop offset="1" stop-color="#8F36FF"/>
</linearGradient>
<linearGradient id="paint1_linear_3_6" x1="13.8054" y1="6.30385" x2="13.8054" y2="22.0679" gradientUnits="userSpaceOnUse">
<stop stop-color="#7000FF"/>
<stop offset="1" stop-color="#8F36FF"/>
</linearGradient>
<clipPath id="clip0_3_6">
<rect width="28" height="28" fill="white"/>
</clipPath>
</defs>
</svg>
