<svg width="30" height="28" viewBox="0 0 30 28" fill="none" xmlns="http://www.w3.org/2000/svg">
<path d="M0 9C0 8.44772 0.447715 8 1 8H23C23.5523 8 24 8.44772 24 9V11C24 11.5523 23.5523 12 23 12H1C0.447716 12 0 11.5523 0 11V9ZM0 1C0 0.447715 0.447715 0 1 0H23C23.5523 0 24 0.447715 24 1V3C24 3.55228 23.5523 4 23 4H1C0.447716 4 0 3.55228 0 3V1ZM0 17C0 16.4477 0.447715 16 1 16H15C15.5523 16 16 16.4477 16 17V19C16 19.5523 15.5523 20 15 20H1C0.447715 20 0 19.5523 0 19V17ZM21.5145 16.9087C20.848 16.5088 20 16.9889 20 17.7662V26.2338C20 27.0111 20.848 27.4912 21.5145 27.0913L28.5708 22.8575C29.2182 22.4691 29.2182 21.5309 28.5708 21.1425L21.5145 16.9087Z" fill="url(#paint0_linear_7_1265)"/>
<defs>
<linearGradient id="paint0_linear_7_1265" x1="15" y1="0" x2="15" y2="28" gradientUnits="userSpaceOnUse">
<stop stop-color="#7000FF"/>
<stop offset="1" stop-color="#8F36FF"/>
</linearGradient>
</defs>
</svg>
