<svg width="20" height="23" viewBox="0 0 20 23" fill="none" xmlns="http://www.w3.org/2000/svg">
<path d="M14.925 4.16665H4.92499L6.00832 3.09165C6.16524 2.93473 6.2534 2.7219 6.2534 2.49998C6.2534 2.27806 6.16524 2.06523 6.00832 1.90831C5.8514 1.7514 5.63857 1.66324 5.41666 1.66324C5.19474 1.66324 4.98191 1.7514 4.82499 1.90831L2.32499 4.40831C2.24688 4.48578 2.18489 4.57795 2.14258 4.6795C2.10027 4.78105 2.07849 4.88997 2.07849 4.99998C2.07849 5.10999 2.10027 5.21891 2.14258 5.32046C2.18489 5.42201 2.24688 5.51418 2.32499 5.59165L4.82499 8.09165C4.90246 8.16976 4.99463 8.23175 5.09618 8.27406C5.19773 8.31636 5.30665 8.33815 5.41666 8.33815C5.52667 8.33815 5.63559 8.31636 5.73714 8.27406C5.83869 8.23175 5.93085 8.16976 6.00832 8.09165C6.08643 8.01418 6.14843 7.92201 6.19073 7.82046C6.23304 7.71891 6.25482 7.60999 6.25482 7.49998C6.25482 7.38997 6.23304 7.28105 6.19073 7.1795C6.14843 7.07795 6.08643 6.98578 6.00832 6.90831L4.92499 5.83331H14.925C15.0957 5.83 15.2654 5.86035 15.4244 5.92264C15.5834 5.98493 15.7286 6.07793 15.8516 6.19633C15.9747 6.31473 16.0732 6.45621 16.1415 6.61269C16.2099 6.76917 16.2467 6.93759 16.25 7.10831V9.16665C16.25 9.38766 16.3378 9.59962 16.4941 9.7559C16.6503 9.91218 16.8623 9.99998 17.0833 9.99998C17.3043 9.99998 17.5163 9.91218 17.6726 9.7559C17.8289 9.59962 17.9167 9.38766 17.9167 9.16665V7.10831C17.9134 6.71872 17.8334 6.33359 17.6813 5.97491C17.5292 5.61622 17.3079 5.29102 17.0301 5.01786C16.7523 4.74469 16.4234 4.52893 16.0622 4.38288C15.701 4.23683 15.3146 4.16335 14.925 4.16665Z" fill="url(#paint0_linear_67_35)"/>
<path d="M15.175 11.9083C15.0181 11.7514 14.8053 11.6633 14.5834 11.6633C14.3615 11.6633 14.1486 11.7514 13.9917 11.9083C13.8348 12.0653 13.7466 12.2781 13.7466 12.5C13.7466 12.7219 13.8348 12.9347 13.9917 13.0917L15.075 14.1667H5.07504C4.90431 14.17 4.73461 14.1396 4.57561 14.0773C4.41662 14.0151 4.27145 13.9221 4.14841 13.8037C4.02537 13.6853 3.92685 13.5438 3.8585 13.3873C3.79015 13.2308 3.75329 13.0624 3.75004 12.8917V10.8333C3.75004 10.6123 3.66224 10.4004 3.50596 10.2441C3.34968 10.0878 3.13772 10 2.91671 10C2.69569 10 2.48373 10.0878 2.32745 10.2441C2.17117 10.4004 2.08337 10.6123 2.08337 10.8333V12.8917C2.08664 13.2813 2.16662 13.6664 2.31874 14.0251C2.47085 14.3838 2.69213 14.709 2.96994 14.9821C3.24774 15.2553 3.57663 15.4711 3.93783 15.6171C4.29902 15.7632 4.68545 15.8366 5.07504 15.8333H15.075L13.9917 16.9083C13.9136 16.9858 13.8516 17.078 13.8093 17.1795C13.767 17.2811 13.7452 17.39 13.7452 17.5C13.7452 17.61 13.767 17.7189 13.8093 17.8205C13.8516 17.922 13.9136 18.0142 13.9917 18.0917C14.0692 18.1698 14.1613 18.2318 14.2629 18.2741C14.3644 18.3164 14.4734 18.3382 14.5834 18.3382C14.6934 18.3382 14.8023 18.3164 14.9039 18.2741C15.0054 18.2318 15.0976 18.1698 15.175 18.0917L17.675 15.5917C17.7531 15.5142 17.8151 15.422 17.8575 15.3205C17.8998 15.2189 17.9215 15.11 17.9215 15C17.9215 14.89 17.8998 14.7811 17.8575 14.6795C17.8151 14.578 17.7531 14.4858 17.675 14.4083L15.175 11.9083Z" fill="url(#paint1_linear_67_35)"/>
<circle cx="10" cy="21" r="2" fill="url(#paint2_linear_67_35)"/>
<defs>
<linearGradient id="paint0_linear_67_35" x1="9.99757" y1="1.66324" x2="9.99757" y2="9.99998" gradientUnits="userSpaceOnUse">
<stop stop-color="#7000FF"/>
<stop offset="1" stop-color="#8F36FF"/>
</linearGradient>
<linearGradient id="paint1_linear_67_35" x1="10.0025" y1="10" x2="10.0025" y2="18.3382" gradientUnits="userSpaceOnUse">
<stop stop-color="#7000FF"/>
<stop offset="1" stop-color="#8F36FF"/>
</linearGradient>
<linearGradient id="paint2_linear_67_35" x1="10" y1="19" x2="10" y2="23" gradientUnits="userSpaceOnUse">
<stop stop-color="#7000FF"/>
<stop offset="1" stop-color="#8F36FF"/>
</linearGradient>
</defs>
</svg>
