<svg width="28" height="28" viewBox="0 0 28 28" fill="none" xmlns="http://www.w3.org/2000/svg">
<g clip-path="url(#clip0_116_12)">
<path fill-rule="evenodd" clip-rule="evenodd" d="M11.8552 0C15.0219 0 17.9989 1.23315 20.2381 3.47233C22.4772 5.71145 23.7104 8.68853 23.7104 11.8552C23.7104 14.6418 22.7555 17.2816 21.0005 19.4009L27.6688 26.0691C28.1104 26.5109 28.1104 27.227 27.6688 27.6687C27.4479 27.8896 27.1584 28 26.869 28C26.5795 28 26.29 27.8896 26.0692 27.6687L19.4009 21.0004C17.2815 22.7554 14.6418 23.7104 11.8552 23.7104C8.68859 23.7104 5.71145 22.4772 3.47233 20.238C1.23315 17.9989 0 15.0218 0 11.8552C0 8.68853 1.23315 5.71145 3.47233 3.47233C5.71145 1.23315 8.68853 0 11.8552 0ZM18.6822 18.5881C18.6657 18.6028 18.6496 18.618 18.6338 18.6338C18.618 18.6495 18.6028 18.6657 18.5882 18.6821C16.855 20.3917 14.4761 21.4482 11.8552 21.4482C6.56551 21.4482 2.26209 17.1448 2.26209 11.8552C2.26209 6.56551 6.56556 2.26209 11.8552 2.26209C17.1449 2.26209 21.4482 6.56551 21.4482 11.8552C21.4482 14.4761 20.3917 16.8549 18.6822 18.5881Z" fill="url(#paint0_linear_116_12)"/>
<circle cx="12" cy="12" r="8" fill="url(#paint1_linear_116_12)"/>
</g>
<defs>
<linearGradient id="paint0_linear_116_12" x1="11.8552" y1="0" x2="11.8552" y2="23.7104" gradientUnits="userSpaceOnUse">
<stop stop-color="#7000FF"/>
<stop offset="1" stop-color="#8F36FF"/>
</linearGradient>
<linearGradient id="paint1_linear_116_12" x1="12" y1="4" x2="12" y2="20" gradientUnits="userSpaceOnUse">
<stop stop-color="#7000FF"/>
<stop offset="1" stop-color="#8F36FF"/>
</linearGradient>
<clipPath id="clip0_116_12">
<rect width="28" height="28" fill="white"/>
</clipPath>
</defs>
</svg>
