<svg width="16" height="18" viewBox="0 0 16 18" fill="none" xmlns="http://www.w3.org/2000/svg">
<path d="M13.3319 12.7237C12.6569 12.7237 12.0528 12.993 11.5925 13.4175L5.25368 9.66898C5.29943 9.46123 5.33483 9.25198 5.33483 9.03597C5.33483 8.81997 5.29869 8.61147 5.25368 8.40297L11.5209 4.68971C11.9989 5.13971 12.6311 5.42095 13.3319 5.42095C14.8094 5.42095 16 4.21269 16 2.71046C16 1.21124 14.8086 0 13.3319 0C11.8573 0 10.6659 1.21124 10.6659 2.70974C10.6659 2.92872 10.7021 3.13424 10.7471 3.34274L4.47986 7.05898C4.00111 6.60675 3.36969 6.32624 2.66814 6.32624C1.19061 6.32624 0 7.53675 0 9.03597C0 10.5352 1.19061 11.7465 2.66814 11.7465C3.36891 11.7465 4.00111 11.4652 4.47912 11.0152L10.8068 14.772C10.7633 14.9632 10.736 15.1627 10.736 15.3615C10.736 16.8165 11.9022 18 13.3311 18C14.7614 18 15.9284 16.8172 15.9284 15.3615C15.9284 13.9057 14.7622 12.7237 13.3319 12.7237Z" fill="url(#paint0_linear_7_1266)"/>
<defs>
<linearGradient id="paint0_linear_7_1266" x1="8" y1="0" x2="8" y2="18" gradientUnits="userSpaceOnUse">
<stop stop-color="#7000FF"/>
<stop offset="1" stop-color="#8F36FF"/>
</linearGradient>
</defs>
</svg>
