<svg width="31" height="24" viewBox="0 0 31 24" fill="none" xmlns="http://www.w3.org/2000/svg">
<path d="M27.8645 12.2016C27.8645 9.0981 26.7382 6.25097 24.8767 4.05445C24.5217 3.63553 24.5183 3.0092 24.905 2.61934L25.3029 2.21817C25.6941 1.82383 26.3344 1.82179 26.6987 2.24114C29.0053 4.89668 30.4161 8.37657 30.4161 12.1789C30.4161 15.9839 29.0221 19.466 26.6986 22.1223C26.334 22.5391 25.6959 22.5357 25.3059 22.1425L24.912 21.7455C24.5226 21.3528 24.5292 20.7211 24.8897 20.3017C26.7593 18.1265 27.8645 15.3011 27.8645 12.2016ZM18.8449 8.75151C19.236 8.35716 19.8818 8.35348 20.2006 8.80839C20.8753 9.7714 21.271 10.9452 21.271 12.2016C21.271 13.458 20.8753 14.6319 20.2006 15.5949C19.8818 16.0498 19.236 16.0461 18.8449 15.6517L18.4603 15.264C18.0683 14.8689 18.0916 14.2319 18.3481 13.738C18.5873 13.2777 18.7194 12.7521 18.7194 12.2016C18.7194 11.6511 18.5873 11.1256 18.3481 10.6652C18.0916 10.1714 18.0683 9.53435 18.4603 9.13926L18.8449 8.75151ZM22.0739 5.45553C22.4665 5.06963 23.1014 5.07083 23.4507 5.49636C24.9471 7.31959 25.8323 9.64425 25.8323 12.1789C25.8323 14.7056 24.9353 17.0411 23.4581 18.851C23.1068 19.2813 22.4651 19.2786 22.0739 18.8843L21.676 18.4831C21.2893 18.0932 21.2951 17.4679 21.6303 17.0329C22.6644 15.691 23.2806 14.0032 23.2806 12.1561C23.2806 10.3273 22.6639 8.64191 21.6289 7.28682C21.2945 6.84894 21.2953 6.2209 21.6882 5.83466L22.0739 5.45553ZM0 7.69268C0 7.1404 0.447715 6.69268 1 6.69268H2.18387C2.73615 6.69268 3.18387 7.1404 3.18387 7.69268V16.6878C3.18387 17.2401 2.73616 17.6878 2.18387 17.6878H1C0.447716 17.6878 0 17.2401 0 16.6878V7.69268ZM4.51613 7.25947C4.51613 6.90789 4.70076 6.58213 5.00241 6.40151L14.1798 0.906366C14.8464 0.507263 15.6935 0.987436 15.6935 1.76433V22.6358C15.6935 23.4134 14.8451 23.8935 14.1785 23.493L5.00113 17.9792C4.70021 17.7984 4.51613 17.4731 4.51613 17.122V7.25947Z" fill="url(#paint0_linear_7_1252)"/>
<defs>
<linearGradient id="paint0_linear_7_1252" x1="15.2081" y1="0" x2="15.2081" y2="24.4033" gradientUnits="userSpaceOnUse">
<stop stop-color="#7000FF"/>
<stop offset="1" stop-color="#8F36FF"/>
</linearGradient>
</defs>
</svg>
