<svg width="16" height="24" viewBox="0 0 16 24" fill="none" xmlns="http://www.w3.org/2000/svg">
<path d="M0 7.69268C0 7.1404 0.447715 6.69268 1 6.69268H2.18387C2.73615 6.69268 3.18387 7.1404 3.18387 7.69268V16.6878C3.18387 17.2401 2.73616 17.6878 2.18387 17.6878H1C0.447716 17.6878 0 17.2401 0 16.6878V7.69268ZM4.51613 7.25947C4.51613 6.90789 4.70076 6.58213 5.00241 6.40151L14.1798 0.906366C14.8464 0.507263 15.6935 0.987436 15.6935 1.76433V22.6358C15.6935 23.4134 14.8451 23.8935 14.1785 23.493L5.00113 17.9792C4.70021 17.7984 4.51613 17.4731 4.51613 17.122V7.25947Z" fill="url(#paint0_linear_145_5)"/>
<defs>
<linearGradient id="paint0_linear_145_5" x1="15.2081" y1="0" x2="15.2081" y2="24.4033" gradientUnits="userSpaceOnUse">
<stop stop-color="#7000FF"/>
<stop offset="1" stop-color="#8F36FF"/>
</linearGradient>
</defs>
</svg>
