<svg width="22" height="24" viewBox="0 0 22 24" fill="none" xmlns="http://www.w3.org/2000/svg">
<path d="M18.8449 8.75151C19.236 8.35716 19.8818 8.35348 20.2006 8.80839C20.8753 9.7714 21.271 10.9452 21.271 12.2016C21.271 13.458 20.8753 14.6319 20.2006 15.5949C19.8818 16.0498 19.236 16.0461 18.8449 15.6517L18.4603 15.264C18.0683 14.8689 18.0916 14.2319 18.3481 13.738C18.5873 13.2777 18.7194 12.7521 18.7194 12.2016C18.7194 11.6511 18.5873 11.1256 18.3481 10.6652C18.0916 10.1714 18.0683 9.53435 18.4603 9.13926L18.8449 8.75151ZM0 7.69268C0 7.1404 0.447715 6.69268 1 6.69268H2.18387C2.73615 6.69268 3.18387 7.1404 3.18387 7.69268V16.6878C3.18387 17.2401 2.73616 17.6878 2.18387 17.6878H1C0.447716 17.6878 0 17.2401 0 16.6878V7.69268ZM4.51613 7.25947C4.51613 6.90789 4.70076 6.58213 5.00241 6.40151L14.1798 0.906366C14.8464 0.507263 15.6935 0.987436 15.6935 1.76433V22.6358C15.6935 23.4134 14.8451 23.8935 14.1785 23.493L5.00113 17.9792C4.70021 17.7984 4.51613 17.4731 4.51613 17.122V7.25947Z" fill="url(#paint0_linear_145_3)"/>
<defs>
<linearGradient id="paint0_linear_145_3" x1="15.2081" y1="0" x2="15.2081" y2="24.4033" gradientUnits="userSpaceOnUse">
<stop stop-color="#7000FF"/>
<stop offset="1" stop-color="#8F36FF"/>
</linearGradient>
</defs>
</svg>
