<svg width="24" height="22" viewBox="0 0 24 22" fill="none" xmlns="http://www.w3.org/2000/svg">
<path d="M19 0.5C19.3928 0.5 19.7556 0.697272 19.9702 1.0187L20.0434 1.14492L23.5434 8.14492C23.7342 8.52629 23.7001 8.97688 23.4648 9.32268L23.3672 9.44717L12.8982 21.0821C12.6887 21.3378 12.3892 21.4762 12.0825 21.4972C12.0094 21.5022 11.9365 21.5006 11.8641 21.4921L11.7329 21.47C11.4981 21.4165 11.2778 21.2912 11.1118 21.0941L0.632823 9.44717C0.347585 9.13018 0.260621 8.68673 0.395488 8.29084L0.456505 8.14492L3.9565 1.14492C4.13217 0.79358 4.47088 0.557283 4.85434 0.5091L5.00001 0.5H19ZM15.0053 9.83333H8.99348L12 17.2323L15.0053 9.83333ZM19.8785 9.83333H17.5242L15.5863 14.6027L19.8785 9.83333ZM6.47465 9.83333H4.12032L8.41132 14.6015L6.47465 9.83333ZM8.05898 2.83333H5.72101L3.38765 7.5H6.54232L8.05898 2.83333ZM13.4852 2.83333H10.5136L8.99815 7.5H15.0007L13.4852 2.83333ZM18.2778 2.83333H15.9398L17.4565 7.5H20.6112L18.2778 2.83333Z" fill="url(#paint0_linear_4_919)"/>
<defs>
<linearGradient id="paint0_linear_4_919" x1="12" y1="0.5" x2="12" y2="21.5" gradientUnits="userSpaceOnUse">
<stop stop-color="#7000FF"/>
<stop offset="1" stop-color="#8F36FF"/>
</linearGradient>
</defs>
</svg>
